<?xml version="1.0" encoding="utf-8"?>
<!-- Generator: Adobe Illustrator 26.0.2, SVG Export Plug-In . SVG Version: 6.00 Build 0)  -->
<svg version="1.1" id="Layer_1" xmlns="http://www.w3.org/2000/svg" xmlns:xlink="http://www.w3.org/1999/xlink" x="0px" y="0px"
	 viewBox="0 0 229.1 24.4" style="enable-background:new 0 0 229.1 24.4;" xml:space="preserve">
<style type="text/css">
	.st0{fill:#2C2871;}
</style>
<g>
	<path class="st0" d="M0,0.5h3.2v10.3L15.8,0.5h2.3L6.5,10.3l14.8,13.5h-4.5L3.2,12v11.8H0V0.5z"/>
	<path class="st0" d="M36.4,24.4c-1.8,0-3.4-0.3-4.9-1s-2.8-1.5-4-2.6c-1.1-1.1-2-2.4-2.7-3.9s-1-3.1-1-4.8c0-1.7,0.3-3.2,1-4.7
		s1.5-2.7,2.7-3.8s2.4-1.9,4-2.6S34.6,0,36.4,0s3.4,0.3,4.9,0.9s2.8,1.5,4,2.6s2,2.4,2.7,3.8s1,3,1,4.7c0,1.7-0.3,3.3-1,4.8
		s-1.5,2.8-2.7,3.9c-1.1,1.1-2.4,2-4,2.6S38.1,24.4,36.4,24.4z M36.4,23.2c1.4,0,2.6-0.3,3.7-0.8s2-1.3,2.7-2.3s1.3-2.2,1.7-3.5
		s0.6-2.8,0.6-4.5c0-1.6-0.2-3.1-0.6-4.4s-0.9-2.5-1.7-3.5s-1.6-1.7-2.7-2.2s-2.3-0.8-3.7-0.8c-1.4,0-2.6,0.3-3.7,0.8
		s-2,1.3-2.7,2.2s-1.3,2.1-1.6,3.5s-0.6,2.8-0.6,4.4c0,1.6,0.2,3.1,0.6,4.5s0.9,2.5,1.6,3.5s1.6,1.8,2.7,2.3S35,23.2,36.4,23.2z"/>
	<path class="st0" d="M55.5,0.5l8.2,12.1L72,0.5h2.1l-9.3,13.7v9.6h-3.2v-9.7L52.1,0.5H55.5z"/>
	<path class="st0" d="M79.5,0.5h3.2v23.3h-3.2V0.5z"/>
	<path class="st0" d="M125.3,0.5V2h-8.4v21.8h-3.2V2h-8.4V0.5H125.3z"/>
	<path class="st0" d="M138.9,22.9c0.6,0,1.2-0.1,1.8-0.2s1.1-0.4,1.6-0.7s0.9-0.7,1.2-1.1s0.4-1,0.4-1.6c0-0.6-0.2-1.2-0.5-1.8
		s-0.8-1-1.4-1.5s-1.2-0.9-1.9-1.3s-1.5-0.8-2.3-1.2c-0.8-0.4-1.6-0.9-2.4-1.3s-1.5-1-2.2-1.5s-1.2-1.2-1.5-1.9s-0.6-1.6-0.6-2.5
		c0-0.9,0.2-1.7,0.5-2.5s0.8-1.4,1.4-2s1.4-1,2.3-1.3s1.9-0.5,3.1-0.5c1,0,2,0.1,2.8,0.4s1.6,0.6,2.2,1s1.2,1,1.6,1.7
		s0.8,1.5,1.1,2.4l-1.4,0.7c-0.2-0.7-0.5-1.3-0.9-1.9s-0.8-1.1-1.3-1.5s-1.1-0.7-1.8-0.9s-1.5-0.3-2.4-0.3c-0.8,0-1.5,0.1-2.1,0.3
		s-1.1,0.5-1.5,0.8s-0.7,0.7-0.9,1.1s-0.3,0.8-0.3,1.3c0,0.5,0.2,1,0.5,1.5s0.8,0.9,1.4,1.4s1.2,0.9,1.9,1.3s1.5,0.8,2.2,1.2
		c0.8,0.4,1.7,0.9,2.5,1.4s1.6,1,2.3,1.6s1.2,1.2,1.7,2s0.6,1.5,0.6,2.4c0,0.9-0.2,1.8-0.5,2.6s-0.8,1.5-1.5,2.1s-1.5,1.1-2.5,1.4
		s-2.2,0.5-3.5,0.5c-1.1,0-2-0.1-2.8-0.4s-1.6-0.6-2.2-1.1s-1.2-1.1-1.7-1.7c-0.5-0.7-0.9-1.5-1.2-2.3l1.5-0.6c0.2,0.7,0.6,1.4,1,2
		s0.9,1.1,1.5,1.5c0.6,0.4,1.2,0.7,1.9,0.9S138.1,22.9,138.9,22.9z"/>
	<path class="st0" d="M163.1,0l11,23.8h-3.4l-3.6-7.8h-10.3l-3.6,7.8h-1.9L162.4,0H163.1z M157.5,14.6h8.9l-4.5-9.5L157.5,14.6z"/>
	<path class="st0" d="M179.4,0.5h1.9L197,18V0.5h1.7v23.8h-0.9L181.1,5.1v18.7h-1.8V0.5z"/>
	<path class="st0" d="M220.1,1.7c-1.5,0-2.8,0.2-4,0.7s-2.3,1.2-3.2,2.1s-1.6,2.1-2.1,3.4s-0.7,2.8-0.7,4.4c0,1.6,0.3,3.1,0.8,4.4
		s1.3,2.4,2.2,3.4c0.9,0.9,2,1.6,3.3,2.1s2.6,0.7,4.1,0.7c0.5,0,1.1,0,1.6-0.1s1-0.2,1.4-0.4s0.9-0.3,1.3-0.5s0.7-0.4,1-0.6v-8.2
		h-4.4v-1.4h7.6v10.4c-0.7,0.4-1.3,0.7-2,0.9s-1.4,0.5-2.2,0.7s-1.6,0.3-2.6,0.4s-2,0.1-3.2,0.1c-1.3,0-2.4-0.1-3.6-0.4
		s-2.2-0.7-3.1-1.2s-1.8-1.2-2.6-1.9c-0.8-0.7-1.4-1.5-2-2.4s-1-1.8-1.3-2.9s-0.4-2.1-0.4-3.2s0.1-2.2,0.4-3.2s0.7-2,1.2-2.9
		s1.2-1.8,1.9-2.5s1.6-1.4,2.5-2s2-1,3.1-1.3s2.3-0.5,3.6-0.5c1.2,0,2.3,0.2,3.3,0.5s1.9,0.8,2.8,1.3s1.6,1.2,2.3,1.9
		s1.2,1.5,1.7,2.3l-1.5,1c-0.5-0.9-1-1.7-1.6-2.4s-1.2-1.2-1.9-1.7s-1.3-0.8-2-1S220.7,1.7,220.1,1.7z"/>
</g>
</svg>
