<?xml version="1.0" encoding="utf-8"?>
<!-- Generator: Adobe Illustrator 26.2.1, SVG Export Plug-In . SVG Version: 6.00 Build 0)  -->
<svg version="1.1" id="Layer_1" xmlns="http://www.w3.org/2000/svg" xmlns:xlink="http://www.w3.org/1999/xlink" x="0px" y="0px"
	 viewBox="0 0 191 191" style="enable-background:new 0 0 191 191;" xml:space="preserve">
<style type="text/css">
	.st0{fill-rule:evenodd;clip-rule:evenodd;fill:#251075;}
</style>
<path class="st0" d="M184.3,128.4c-18.3,49.2-73,74.2-122.2,55.9C12.9,165.9-12.1,111.2,6.2,62c18.3-49.2,73-74.2,122.2-55.9
	C177.6,24.5,202.6,79.2,184.3,128.4z M70.3,162c17.5,6.5,36.8,5.9,53.7-1.8c16.9-7.7,30.1-21.7,36.5-39c0.3-0.8-0.1-1.6-0.9-1.9
	c-0.8-0.3-1.6,0.1-1.9,0.9c-6.2,16.6-18.7,30-34.9,37.3c-16.2,7.3-34.7,7.9-51.4,1.7c-16.7-6.2-30.3-18.8-37.8-34.9
	c-7.4-16.1-8.2-34.5-2-51.1c0.3-0.8-0.1-1.6-0.9-1.9c-0.8-0.3-1.6,0.1-1.9,0.9c-6.5,17.3-5.7,36.5,2.1,53.4
	C38.7,142.4,52.9,155.5,70.3,162z M63.4,91.8c6,2.2,15.7-9.2,21.8-25.5s6.2-31.3,0.2-33.5c-6-2.2-15.7,9.2-21.8,25.5
	S57.5,89.6,63.4,91.8z M140.4,86.8c-6.1,16.3-15.8,27.7-21.8,25.5c-6-2.2-5.9-17.2,0.2-33.5c6.1-16.3,15.8-27.7,21.8-25.5
	C146.5,55.5,146.4,70.5,140.4,86.8z"/>
</svg>
